<?xml version="1.0" standalone="no"?>
<!DOCTYPE svg PUBLIC "-//W3C//DTD SVG 20010904//EN"
 "http://www.w3.org/TR/2001/REC-SVG-20010904/DTD/svg10.dtd">
<svg version="1.0" xmlns="http://www.w3.org/2000/svg"
 width="146.000000pt" height="146.000000pt" viewBox="0 0 146.000000 146.000000"
 preserveAspectRatio="xMidYMid meet">
<metadata>
Created by potrace 1.14, written by Peter Selinger 2001-2017
</metadata>
<g transform="translate(0.000000,146.000000) scale(0.100000,-0.100000)"
fill="#000000" stroke="none">
<path d="M520 1262 c-8 -3 -21 -12 -28 -21 -8 -9 -10 -10 -7 -2 5 9 -1 8 -19
-4 -14 -10 -26 -21 -26 -26 0 -5 -6 -9 -14 -9 -8 0 -18 -9 -21 -20 -4 -11 -10
-18 -15 -15 -5 3 -12 -5 -16 -17 -3 -12 -14 -30 -24 -40 -9 -10 -23 -36 -30
-58 -7 -22 -18 -40 -23 -40 -5 0 -4 -7 3 -15 10 -12 10 -15 -1 -15 -18 0 -24
-47 -22 -192 1 -141 4 -178 15 -178 4 0 7 -3 6 -7 -3 -15 15 -68 28 -83 7 -8
13 -18 13 -23 0 -14 35 -67 44 -67 4 0 5 -4 2 -10 -3 -5 1 -10 9 -10 8 0 17
-9 21 -19 3 -11 33 -34 67 -50 59 -30 65 -31 200 -31 82 0 138 4 138 10 0 5 7
7 15 4 8 -4 15 -1 15 5 0 6 7 11 16 11 19 0 110 91 124 123 6 12 14 29 20 37
16 26 39 84 43 107 2 12 6 26 10 29 4 4 7 22 7 40 0 18 4 35 9 39 6 3 7 15 4
28 -3 12 -4 33 -3 47 4 52 -8 134 -21 138 -5 2 -5 11 1 23 7 13 7 19 0 19 -5
0 -10 7 -10 15 0 8 -4 23 -9 33 -5 9 -17 34 -26 55 -9 20 -20 37 -26 37 -6 0
-8 4 -5 9 7 11 -85 111 -102 111 -7 0 -12 4 -12 8 0 19 -92 33 -210 31 -69 -1
-132 -4 -140 -7z"/>
</g>
</svg>
